<svg xmlns="http://www.w3.org/2000/svg" width="87" height="25.904" viewBox="0 0 87 25.904">
  <g id="Group_2726" data-name="Group 2726" transform="translate(-27.919 -40.609)">
    <g id="Group_790" data-name="Group 790" transform="translate(27.919 50.586)">
      <path id="Path_1923" data-name="Path 1923" d="M37.627,158.054a3.012,3.012,0,0,1,2.1.789,2.494,2.494,0,0,1,.6,2.99,2.741,2.741,0,0,1-.71.882,2.921,2.921,0,0,1,1.147,1,2.5,2.5,0,0,1,.43,1.413,2.555,2.555,0,0,1-.882,1.95,3.043,3.043,0,0,1-2.137.8H27.919v-9.823Zm-7.027,4H36.76a1.044,1.044,0,0,0,.738-.28.913.913,0,0,0,0-1.355,1.045,1.045,0,0,0-.738-.28H30.6Zm0,3.743h6.833a1.046,1.046,0,0,0,.739-.28.807.807,0,0,0,.3-.681.885.885,0,0,0-.308-.681,1.01,1.01,0,0,0-.731-.273H30.6Z" transform="translate(-27.919 -158.054)" fill="#131023"/>
      <path id="Path_1924" data-name="Path 1924" d="M211.564,158.054v2.187h-9.45v1.606H210.3V164h-8.188v1.692h9.45v2.187H199.432v-9.823Z" transform="translate(-184.862 -158.054)" fill="#131023"/>
      <path id="Path_1925" data-name="Path 1925" d="M542.12,158.054a3.2,3.2,0,0,1,2.237.839,2.618,2.618,0,0,1,.918,2.029v4.087a2.619,2.619,0,0,1-.918,2.029,3.2,3.2,0,0,1-2.237.839h-7.68a3.212,3.212,0,0,1-2.237-.839,2.651,2.651,0,0,1-.918-2.029v-4.087a2.65,2.65,0,0,1,.918-2.029,3.211,3.211,0,0,1,2.237-.839Zm-7.787,2.524a1.022,1.022,0,0,0-.366.81v3.155a1.086,1.086,0,0,0,.366.817,1.335,1.335,0,0,0,.9.33h6.1a1.4,1.4,0,0,0,.9-.337,1.078,1.078,0,0,0,.366-.81v-3.155a1.043,1.043,0,0,0-.366-.818,1.16,1.16,0,0,0-.9-.33h-6.1A1.234,1.234,0,0,0,534.333,160.578Z" transform="translate(-488.526 -158.054)" fill="#131023"/>
      <path id="Path_1926" data-name="Path 1926" d="M713.922,158.054l8.489,6.9v-6.9H725.1v9.823h-2.689l-8.489-6.89v6.89H711.24v-9.823Z" transform="translate(-653.194 -158.054)" fill="#131023"/>
      <path id="Path_1927" data-name="Path 1927" d="M900.016,158.054a3.7,3.7,0,0,1,1.649.38,3.052,3.052,0,0,1,1.255,1.047,2.258,2.258,0,0,1,.473,1.441v4.087a2.241,2.241,0,0,1-.48,1.441,3.247,3.247,0,0,1-1.255,1.047,3.591,3.591,0,0,1-1.642.38H889.591v-9.823Zm-7.744,7.636h7.177a1.4,1.4,0,0,0,.9-.337,1.077,1.077,0,0,0,.366-.81v-3.155a1.042,1.042,0,0,0-.366-.818,1.159,1.159,0,0,0-.9-.33h-7.177Z" transform="translate(-816.394 -158.054)" fill="#131023"/>
    </g>
    <path id="Path_1928" data-name="Path 1928" d="M244.988,61.754a16.86,16.86,0,0,0-1.112,2.012,7.155,7.155,0,0,0-.4,1.056,1.483,1.483,0,0,0-.029.966c.1.2.421.236.771.166a5.159,5.159,0,0,0,1.042-.338,17.02,17.02,0,0,0,2.019-1.053,32.51,32.51,0,0,0,3.768-2.623c1.214-.948,2.409-1.93,3.608-2.909A160.439,160.439,0,0,1,269.616,47.87a66.2,66.2,0,0,1,8.269-4.55,30.5,30.5,0,0,1,9.215-2.6,22.592,22.592,0,0,1,4.867.045,17.394,17.394,0,0,1,4.7,1.257,17.731,17.731,0,0,1,7.381,5.9l-.169.155a21.016,21.016,0,0,0-7.766-4.541,20.567,20.567,0,0,0-2.147-.517,18.409,18.409,0,0,0-2.189-.239,21.453,21.453,0,0,0-4.4.216,39.9,39.9,0,0,0-8.614,2.418,58.263,58.263,0,0,0-8.194,4.023,159.058,159.058,0,0,0-15.207,10.5c-1.245.923-2.489,1.85-3.76,2.749-.636.449-1.278.893-1.938,1.316s-1.349.811-2.037,1.179a17.625,17.625,0,0,1-2.147.992,5.674,5.674,0,0,1-1.18.318c-.108.008-.213.023-.324.024a1.867,1.867,0,0,1-.347-.039.874.874,0,0,1-.614-.469,1.291,1.291,0,0,1-.084-.7,3.377,3.377,0,0,1,.145-.606,7.529,7.529,0,0,1,.478-1.092,17.113,17.113,0,0,1,1.245-1.986Z" transform="translate(-196.738 0)" fill="#131023"/>
    <path id="Path_1929" data-name="Path 1929" d="M360.414,162.1l-4.079-4.051h-3.958l6.206,5.734Z" transform="translate(-296.896 -107.468)" fill="#131023"/>
  </g>
</svg>
